:SAMPLES-PER-SECOND 24
:FULLY-SPECIFIED
:DEGREES
47
root  3.87425 39.5874 -1.93792 70.4098 -12.8345 -33.2474
RightUpLeg  37.3334 -6.8851 -46.3052
RightLeg  30.5361 4.10285 2.3841
RightFoot  7.09045 -0.928208 6.01451
RightToes  -1.74623e-010 0 -2.59999e-017
Spine  18.9503 5.74351 -24.6271
Spine1  -4.41278 -1.99471 32.2526
HEad  -29.9848 -45.8864 42.3196
LeftShoulder1  2.2368 -4.52271 -21.5122
LeftArm  7.28509 30.5291 -22.6148
LeftForeArm  59.7881 -78.3043 -59.1251
LeftHand  -0.623218 3.36632 35.2697
RightShoulder  3.72307 6.02 33.2124
RightArm  19.3343 -19.7515 16.6168
RightForeArm  54.3739 78.2351 62.8527
RightHand  -1.14775 4.08592 -14.2607
LeftUpLeg  -65.6285 27.0191 14.8927
LeftLeg  11.2122 20.0556 -4.04737
LeftFoot  -6.13005 0.0163151 0.438299
LeftToes  -6.27559e-011 -2.10356e-011 8.24929e-012
48
root  4.00356 39.5173 -2.20232 69.5468 -14.2449 -35.3526
RightUpLeg  33.063 -7.62217 -45.145
RightLeg  35.3492 5.17368 3.68228
RightFoot  6.86648 -1.04787 6.82602
RightToes  -1.74623e-010 0 -2.59999e-017
Spine  20.15 6.30779 -26.815
Spine1  -4.15096 -2.4937 32.901
HEad  -25.2586 -45.0809 40.6433
LeftShoulder1  2.25312 -4.49056 -21.8487
LeftArm  6.48701 25.8788 -23.1016
LeftForeArm  46.2538 -75.9091 -44.9273
LeftHand  -0.754715 2.94702 35.2871
RightShoulder  3.75022 6.03749 33.4247
RightArm  18.2093 -24.0225 15.6904
RightForeArm  45.8286 77.013 53.1084
RightHand  -1.1459 4.96207 -13.0894
LeftUpLeg  -66.0735 29.166 13.0776
LeftLeg  13.9429 18.8867 -1.88563
LeftFoot  -7.84339 -0.0274348 2.44426
LeftToes  -6.27559e-011 -2.10356e-011 8.24929e-012
49
root  4.0763 39.6453 -2.29395 69.3237 -16.0323 -38.3542
RightUpLeg  26.1204 -7.03536 -40.776
RightLeg  42.3367 6.62087 6.16573
RightFoot  8.89511 -1.71845 9.92219
RightToes  -1.74623e-010 0 -2.59999e-017
Spine  18.0696 6.06783 -28.2873
Spine1  -2.10861 -3.33359 32.614
HEad  -21.9266 -41.2373 41.252
LeftShoulder1  2.31589 -4.45326 -22.823
LeftArm  4.07575 24.5155 -25.6458
LeftForeArm  32.6813 -71.7279 -32.8238
LeftHand  -0.971677 2.38187 36.7491
RightShoulder  3.84783 6.10112 34.1757
RightArm  16.4834 -25.9184 16.1312
RightForeArm  38.5708 75.2575 44.1605
RightHand  -1.16758 5.5513 -12.6444
LeftUpLeg  -64.4416 30.9532 13.9736
LeftLeg  15.3652 19.2975 0.434219
LeftFoot  -8.3841 -0.0282784 3.04535
LeftToes  -6.27559e-011 -2.10356e-011 8.24929e-012
50
root  4.18189 39.8846 -2.38873 69.627 -17.9803 -41.8695
RightUpLeg  16.8206 -6.79707 -36.3609
RightLeg  53.3587 5.87257 8.02489
RightFoot  11.3221 -2.65648 13.5988
RightToes  -1.74623e-010 0 -2.59999e-017
Spine  13.6382 4.95229 -27.1356
Spine1  1.19948 -4.38649 30.5152
HEad  -18.743 -36.0288 37.2842
LeftShoulder1  2.47011 -4.54433 -24.4952
LeftArm  4.89096 23.2473 -27.6043
LeftForeArm  22.0524 -66.0995 -24.0865
LeftHand  -1.16654 1.90562 37.959
RightShoulder  3.92485 6.14493 34.7862
RightArm  14.3944 -26.5318 17.1333
RightForeArm  32.455 73.2254 37.3095
RightHand  -1.12884 5.43977 -12.3609
LeftUpLeg  -62.2901 33.4795 15.1978
LeftLeg  15.7014 18.305 1.48652
LeftFoot  -7.95675 -0.0355348 2.8132
LeftToes  -6.27559e-011 -2.10356e-011 8.24929e-012
51
root  4.37877 39.9955 -2.26322 70.6314 -19.6273 -46.1908
RightUpLeg  4.48419 -6.42483 -31.0725
RightLeg  69.9814 2.62279 7.10224
RightFoot  11.5497 -2.92982 14.797
RightToes  -1.74623e-010 0 -2.59999e-017
Spine  7.94392 3.40913 -22.6534
Spine1  4.64983 -4.91733 27.2954
HEad  -14.7521 -28.2657 28.8683
LeftShoulder1  2.56826 -4.56218 -25.6974
LeftArm  8.36328 21.6131 -30.327
LeftForeArm  15.3714 -59.8073 -18.2791
LeftHand  -1.36992 1.44051 39.1865
RightShoulder  3.89006 6.09613 34.6321
RightArm  12.21 -27.4266 17.8296
RightForeArm  31.5075 73.2127 37.4825
RightHand  -0.948287 4.81869 -11.036
LeftUpLeg  -59.7376 35.9921 17.4661
LeftLeg  16.4962 18.1971 2.72595
LeftFoot  -8.7212 -0.0182576 3.10794
LeftToes  -6.27559e-011 -2.10356e-011 8.24929e-012
52
root  4.65291 40.0469 -2.198 71.4948 -20.5235 -50.1517
RightUpLeg  -8.72784 -7.29279 -24.4414
RightLeg  89.3117 0.152866 6.13459
RightFoot  11.6362 -2.46327 12.4735
RightToes  -1.74623e-010 0 -2.59999e-017
Spine  2.06376 1.84152 -15.6824
Spine1  8.67561 -5.7548 23.6505
HEad  -10.4439 -16.8571 18.9891
LeftShoulder1  2.60382 -4.56128 -26.1593
LeftArm  13.0244 18.8133 -33.8722
LeftForeArm  10.6457 -53.3137 -14.3069
LeftHand  -1.51789 1.05952 39.555
RightShoulder  3.87345 6.07414 34.553
RightArm  9.54922 -27.3708 18.0098
RightForeArm  36.703 75.1878 44.3753
RightHand  -0.793615 4.04471 -10.0113
LeftUpLeg  -59.2579 40.0181 17.5448
LeftLeg  17.738 16.5365 3.331
LeftFoot  -9.11002 -0.0229998 3.9952
LeftToes  -6.27559e-011 -2.10356e-011 8.24929e-012
53
root  5.05974 40.1405 -2.05291 67.0964 -23.074 -48.9671
RightUpLeg  -16.3161 -11.1269 -21.5498
RightLeg  106.041 -1.86257 6.7235
RightFoot  12.2227 -2.28792 11.3397
RightToes  -1.74623e-010 0 -2.59999e-017
Spine  2.57061 0.522957 -12.7304
Spine1  9.28331 -7.16302 21.5571
HEad  -6.04935 -4.00842 9.90339
LeftShoulder1  2.62648 -4.59007 -26.331
LeftArm  17.6047 15.8726 -36.5124
LeftForeArm  8.67291 -49.4768 -12.4895
LeftHand  -1.58608 0.833928 39.292
RightShoulder  3.97781 6.17536 35.1988
RightArm  6.88711 -27.1685 18.0507
RightForeArm  47.0733 77.2597 54.8212
RightHand  -0.781945 3.72622 -10.1914
LeftUpLeg  -55.8253 39.5894 15.575
LeftLeg  18.7623 14.1513 3.33122
LeftFoot  -9.18175 -0.0227166 4.13201
LeftToes  -6.27559e-011 -2.10356e-011 8.24929e-012
54
root  5.38651 40.217 -1.70488 59.8676 -26.6169 -45.6214
RightUpLeg  -20.8946 -14.7167 -20.4076
RightLeg  118.872 -5.03489 8.9722
RightFoot  13.2837 -3.00265 14.0978
RightToes  -1.74623e-010 0 -2.59999e-017
Spine  4.40465 0.176454 -11.0343
Spine1  9.64792 -7.24771 18.4377
HEad  -2.03648 6.84071 3.46756
LeftShoulder1  2.59642 -4.54256 -26.1408
LeftArm  18.7258 14.5374 -39.5879
LeftForeArm  9.74409 -49.2982 -12.3362
LeftHand  -1.68546 0.649734 40.0514
RightShoulder  4.06302 6.26073 35.7035
RightArm  4.61586 -29.3655 18.7547
RightForeArm  64.9991 79.0341 71.7764
RightHand  -0.826469 3.54552 -10.9593
LeftUpLeg  -46.8459 34.058 17.024
LeftLeg  19.0774 17.2278 4.00184
LeftFoot  -9.90734 0.00225789 4.6758
LeftToes  -6.27559e-011 -2.10356e-011 8.24929e-012
55
root  5.528 40.4655 -1.21608 52.5583 -29.0247 -41.4983
RightUpLeg  -24.4047 -17.3571 -18.0577
RightLeg  125.243 -8.46225 11.5647
RightFoot  14.894 -3.50821 15.4245
RightToes  -1.74623e-010 0 -2.59999e-017
Spine  3.58506 0.662282 -8.15003
Spine1  12.8506 -6.24018 14.1796
HEad  0.30171 14.2134 -1.43714
LeftShoulder1  2.59428 -4.40255 -26.7065
LeftArm  17.6631 14.2923 -42.7229
LeftForeArm  10.688 -51.0381 -13.1005
LeftHand  -1.79136 0.472056 40.9533
RightShoulder  4.11217 6.31622 35.9631
RightArm  3.48385 -32.533 19.6385
RightForeArm  88.1142 79.5215 95.211
RightHand  -0.814271 2.68888 -11.8924
LeftUpLeg  -36.3287 22.9367 20.9328
LeftLeg  16.904 27.1222 4.39418
LeftFoot  -8.47203 -0.102998 5.78944
LeftToes  -6.27559e-011 -2.10356e-011 8.24929e-012
56
root  5.46338 41.0564 -0.454508 43.9855 -28.077 -35.6815
RightUpLeg  -24.7216 -19.3599 -14.9637
RightLeg  123.943 -8.42584 12.0511
RightFoot  14.9333 -3.055 13.4821
RightToes  -1.74623e-010 0 -2.59999e-017
Spine  3.03906 0.822171 -5.46911
Spine1  15.8101 -5.88199 12.2113
HEad  1.22056 19.1189 -5.46264
LeftShoulder1  2.68226 -4.33772 -28.1421
LeftArm  18.5307 14.2878 -43.6918
LeftForeArm  10.1498 -52.8499 -14.0913
LeftHand  -1.69989 0.708115 40.8441
RightShoulder  4.19692 6.40112 36.4479
RightArm  4.11338 -33.8475 19.9632
RightForeArm  100.683 78.9313 109.028
RightHand  -0.780442 1.81405 -12.7209
LeftUpLeg  -28.1598 16.059 19.8424
LeftLeg  11.4672 24.9733 1.46673
LeftFoot  -3.97314 -0.152213 2.736
LeftToes  -6.27559e-011 -2.10356e-011 8.24929e-012
57
root  5.29828 41.6835 0.380301 34.0709 -23.7573 -27.7646
RightUpLeg  -22.4622 -20.6706 -13.0912
RightLeg  118.604 -5.96773 10.6682
RightFoot  12.8269 -2.29514 11.1058
RightToes  -1.74623e-010 0 -2.59999e-017
Spine  4.43871 0.0497961 -5.19519
Spine1  16.3586 -6.77879 12.7915
HEad  2.15509 22.4967 -7.45768
LeftShoulder1  2.72017 -4.35947 -28.54
LeftArm  21.2178 13.7145 -43.343
LeftForeArm  10.7731 -53.8992 -14.6291
LeftHand  -1.5029 1.06247 39.2063
RightShoulder  4.21481 6.42085 36.5413
RightArm  4.75051 -33.7919 20.9809
RightForeArm  103.375 78.6878 112.155
RightHand  -0.780433 1.85755 -12.65
LeftUpLeg  -21.71 12.3957 16.3476
LeftLeg  7.9736 18.3249 -1.77607
LeftFoot  0.48877 0.459982 -4.50329
LeftToes  -6.27559e-011 -2.10356e-011 8.24929e-012
